<?xml version="1.0" encoding="UTF-8"?>
<svg width="40px" height="50px" viewBox="0 0 40 50" version="1.1" xmlns="http://www.w3.org/2000/svg" xmlns:xlink="http://www.w3.org/1999/xlink">
    <title>Helicopter Marker</title>
    <g stroke="none" stroke-width="1" fill="none" fill-rule="evenodd">
        <path d="M20,0 C31.0457,0 40,8.9543 40,20 C40,31.0457 31.0457,40 20,40 C15.8579,40 12.0149,38.6322 8.87516,36.345 L0,50 L0,50 L9.39743,36.5183 C3.71584,32.7205 0,26.7132 0,20 C0,8.9543 8.9543,0 20,0 Z" fill="#3B82F6" fill-rule="nonzero"></path>
        <g transform="translate(8.000000, 12.000000)" fill="#FFFFFF" fill-rule="nonzero">
            <path d="M23,12.0001 L19,12.0001 L19,16.0001 L5,16.0001 L5,12.0001 L1,12.0001 C0.45,12.0001 0,11.5501 0,11.0001 C0,10.4501 0.45,10.0001 1,10.0001 L5,10.0001 L5,8.0001 C5,6.9001 5.9,6.0001 7,6.0001 L9,6.0001 L9,0.0001 L15,0.0001 L15,6.0001 L17,6.0001 C18.1,6.0001 19,6.9001 19,8.0001 L19,10.0001 L23,10.0001 C23.55,10.0001 24,10.4501 24,11.0001 C24,11.5501 23.55,12.0001 23,12.0001 Z"></path>
        </g>
    </g>
</svg> 