<?xml version="1.0" encoding="UTF-8"?>
<svg width="35px" height="35px" viewBox="0 0 384 512" version="1.1" xmlns="http://www.w3.org/2000/svg">
  <path fill="#ef4444" d="M172.268 501.67C26.97 291.031 0 269.413 0 192 0 85.961 85.961 0 192 0s192 85.961 192 192c0 77.413-26.97 99.031-172.268 309.67-9.535 13.774-29.93 13.773-39.464 0zM192 272c44.183 0 80-35.817 80-80s-35.817-80-80-80-80 35.817-80 80 35.817 80 80 80z"/>
  <circle cx="192" cy="192" r="60" fill="white"/>
  <path fill="#ef4444" d="M 186,182 L 182,182 L 182,172 L 186,172 L 186,168 L 176,168 L 176,186 L 186,186 L 186,182 Z M 198,186 L 198,178 L 194,178 L 194,174 C 194,172.9 194.9,172 196,172 L 198,172 L 198,168 L 196,168 C 192.7,168 190,170.7 190,174 L 190,178 L 186,178 L 186,182 L 190,182 L 190,186 L 198,186 Z M 209,168 L 205,168 L 205,186 L 209,186 L 209,168 Z"/>
</svg> 