<svg width="24" height="24" viewBox="0 0 24 24" fill="none" xmlns="http://www.w3.org/2000/svg">
  <path d="M19.5 12.5C19.5 11.12 20.62 10 22 10V8.5C22 5 21 3 17.5 3H6.5C3 3 2 5 2 8.5V9.5C3.38 9.5 4.5 10.62 4.5 12C4.5 13.38 3.38 14.5 2 14.5V15.5C2 19 3 21 6.5 21H17.5C21 21 22 19 22 15.5C20.62 15.5 19.5 14.38 19.5 13V12.5Z" stroke="#0095F6" stroke-width="1.5" stroke-linecap="round" stroke-linejoin="round"/>
  <path d="M9 13.5H15" stroke="#0095F6" stroke-width="1.5" stroke-linecap="round" stroke-linejoin="round"/>
  <path d="M12 16.5V10.5" stroke="#0095F6" stroke-width="1.5" stroke-linecap="round" stroke-linejoin="round"/>
</svg> 