<svg width="44" height="44" viewBox="0 0 44 44" fill="none" xmlns="http://www.w3.org/2000/svg">
<path d="M1.78192 26.8491C1.78192 24.7774 2.18163 22.7259 2.95827 20.812C3.73493 18.8979 4.87324 17.1588 6.30828 15.6939C7.74332 14.229 9.44689 13.0669 11.3218 12.2741C13.1969 11.4813 15.2064 11.0732 17.2359 11.0732V26.8491H1.78192Z" fill="#329DFF"/>
<path d="M1.78192 26.8491C1.78192 28.9209 2.18163 30.9723 2.95827 32.8864C3.73493 34.8004 4.87324 36.5395 6.30828 38.0044C7.74332 39.4693 9.44689 40.6314 11.3218 41.4242C13.1969 42.217 15.2064 42.625 17.2359 42.625V26.8491H1.78192Z" fill="#329DFF"/>
<path d="M32.6896 26.8491C32.6896 28.9209 32.2902 30.9723 31.5136 32.8864C30.737 34.8004 29.5987 36.5395 28.1634 38.0044C26.7284 39.4693 25.0248 40.6314 23.1498 41.4242C21.2749 42.217 19.2653 42.625 17.2359 42.625V26.8491H32.6896Z" fill="#329DFF"/>
<path d="M42.2181 13.2202C42.2181 19.762 37.0229 25.0653 30.6146 25.0653H19.0112V13.2202C19.0112 6.67828 24.2063 1.375 30.6146 1.375C37.0229 1.375 42.2181 6.67828 42.2181 13.2202Z" fill="#ED686C"/>
</svg>
